<mxfile host="app.diagrams.net" modified="2020-03-20T18:04:33.023Z" agent="Mozilla/5.0 (Windows NT 10.0; WOW64; rv:56.0) Gecko/20100101 Firefox/56.0" etag="Vloz-a5oZlV-xEH8Gqt7" version="12.8.8" type="github">
  <diagram name="Page-1" id="6133507b-19e7-1e82-6fc7-422aa6c4b21f">
    <mxGraphModel dx="1422" dy="771" grid="1" gridSize="10" guides="1" tooltips="1" connect="1" arrows="1" fold="1" page="1" pageScale="1" pageWidth="1100" pageHeight="850" background="#ffffff" math="0" shadow="0">
      <root>
        <mxCell id="0" />
        <mxCell id="1" parent="0" />
        <mxCell id="2EE-lnMaA_nyX3GUGibZ-1" value="Sanitizer&amp;lt;I&amp;gt;" style="html=1;" vertex="1" parent="1">
          <mxGeometry x="260" y="210" width="110" height="50" as="geometry" />
        </mxCell>
        <mxCell id="2EE-lnMaA_nyX3GUGibZ-2" value="BasicGenerator" style="html=1;" vertex="1" parent="1">
          <mxGeometry x="260" y="120" width="110" height="50" as="geometry" />
        </mxCell>
        <mxCell id="2EE-lnMaA_nyX3GUGibZ-3" value="&lt;div&gt;ArgumentParser&lt;/div&gt;" style="html=1;" vertex="1" parent="1">
          <mxGeometry x="260" y="440" width="110" height="50" as="geometry" />
        </mxCell>
        <mxCell id="2EE-lnMaA_nyX3GUGibZ-4" value="BasicSanitizer" style="html=1;" vertex="1" parent="1">
          <mxGeometry x="260" y="330" width="110" height="50" as="geometry" />
        </mxCell>
        <mxCell id="2EE-lnMaA_nyX3GUGibZ-5" value="StateGenerator&amp;lt;I&amp;gt;" style="html=1;" vertex="1" parent="1">
          <mxGeometry x="600" y="120" width="140" height="50" as="geometry" />
        </mxCell>
        <mxCell id="2EE-lnMaA_nyX3GUGibZ-6" value="HiveNet" style="html=1;" vertex="1" parent="1">
          <mxGeometry x="615" y="300" width="110" height="50" as="geometry" />
        </mxCell>
        <mxCell id="2EE-lnMaA_nyX3GUGibZ-7" value="&lt;div&gt;ResourceAllocator&lt;/div&gt;" style="html=1;" vertex="1" parent="1">
          <mxGeometry x="600" y="210" width="140" height="50" as="geometry" />
        </mxCell>
        <mxCell id="2EE-lnMaA_nyX3GUGibZ-8" value="WDS&amp;lt;I&amp;gt;" style="html=1;" vertex="1" parent="1">
          <mxGeometry x="870" y="210" width="110" height="50" as="geometry" />
        </mxCell>
        <mxCell id="2EE-lnMaA_nyX3GUGibZ-10" value="Node&amp;lt;I&amp;gt;" style="html=1;" vertex="1" parent="1">
          <mxGeometry x="870" y="120" width="110" height="50" as="geometry" />
        </mxCell>
        <mxCell id="2EE-lnMaA_nyX3GUGibZ-11" value="BasicFormatter" style="html=1;" vertex="1" parent="1">
          <mxGeometry x="870" y="420" width="110" height="50" as="geometry" />
        </mxCell>
        <mxCell id="2EE-lnMaA_nyX3GUGibZ-12" value="Formatter&amp;lt;I&amp;gt;" style="html=1;" vertex="1" parent="1">
          <mxGeometry x="870" y="300" width="110" height="50" as="geometry" />
        </mxCell>
        <mxCell id="2EE-lnMaA_nyX3GUGibZ-13" value="CSVViewer&amp;lt;I&amp;gt;" style="html=1;" vertex="1" parent="1">
          <mxGeometry x="870" y="630" width="110" height="50" as="geometry" />
        </mxCell>
        <mxCell id="2EE-lnMaA_nyX3GUGibZ-14" value="Viewer&amp;lt;I&amp;gt;" style="html=1;" vertex="1" parent="1">
          <mxGeometry x="870" y="530" width="110" height="50" as="geometry" />
        </mxCell>
        <mxCell id="2EE-lnMaA_nyX3GUGibZ-15" value="Snapshot&amp;lt;I&amp;gt;" style="html=1;" vertex="1" parent="1">
          <mxGeometry x="300" y="690" width="110" height="50" as="geometry" />
        </mxCell>
        <mxCell id="2EE-lnMaA_nyX3GUGibZ-16" value="BasicSnapshot" style="html=1;" vertex="1" parent="1">
          <mxGeometry x="110" y="690" width="110" height="50" as="geometry" />
        </mxCell>
        <mxCell id="2EE-lnMaA_nyX3GUGibZ-17" value="BasicWDS" style="html=1;" vertex="1" parent="1">
          <mxGeometry x="300" y="600" width="110" height="50" as="geometry" />
        </mxCell>
        <mxCell id="2EE-lnMaA_nyX3GUGibZ-18" value="BasicNode" style="html=1;" vertex="1" parent="1">
          <mxGeometry x="110" y="600" width="110" height="50" as="geometry" />
        </mxCell>
        <mxCell id="2EE-lnMaA_nyX3GUGibZ-19" value="Extends" style="endArrow=block;endSize=16;endFill=0;html=1;exitX=1;exitY=0.5;exitDx=0;exitDy=0;entryX=0;entryY=0.5;entryDx=0;entryDy=0;" edge="1" parent="1" source="2EE-lnMaA_nyX3GUGibZ-2" target="2EE-lnMaA_nyX3GUGibZ-5">
          <mxGeometry width="160" relative="1" as="geometry">
            <mxPoint x="470" y="400" as="sourcePoint" />
            <mxPoint x="630" y="400" as="targetPoint" />
          </mxGeometry>
        </mxCell>
        <mxCell id="2EE-lnMaA_nyX3GUGibZ-21" value="Use" style="endArrow=open;endSize=12;dashed=1;html=1;exitX=0.5;exitY=1;exitDx=0;exitDy=0;" edge="1" parent="1" source="2EE-lnMaA_nyX3GUGibZ-2" target="2EE-lnMaA_nyX3GUGibZ-1">
          <mxGeometry width="160" relative="1" as="geometry">
            <mxPoint x="470" y="400" as="sourcePoint" />
            <mxPoint x="630" y="400" as="targetPoint" />
          </mxGeometry>
        </mxCell>
        <mxCell id="2EE-lnMaA_nyX3GUGibZ-22" value="Extends" style="endArrow=block;endSize=16;endFill=0;html=1;exitX=0.5;exitY=0;exitDx=0;exitDy=0;entryX=0.5;entryY=1;entryDx=0;entryDy=0;" edge="1" parent="1" source="2EE-lnMaA_nyX3GUGibZ-4" target="2EE-lnMaA_nyX3GUGibZ-1">
          <mxGeometry width="160" relative="1" as="geometry">
            <mxPoint x="470" y="400" as="sourcePoint" />
            <mxPoint x="630" y="400" as="targetPoint" />
          </mxGeometry>
        </mxCell>
        <mxCell id="2EE-lnMaA_nyX3GUGibZ-23" value="Use" style="endArrow=open;endSize=12;dashed=1;html=1;exitX=0.5;exitY=1;exitDx=0;exitDy=0;entryX=0.5;entryY=0;entryDx=0;entryDy=0;" edge="1" parent="1" source="2EE-lnMaA_nyX3GUGibZ-4" target="2EE-lnMaA_nyX3GUGibZ-3">
          <mxGeometry width="160" relative="1" as="geometry">
            <mxPoint x="470" y="400" as="sourcePoint" />
            <mxPoint x="630" y="400" as="targetPoint" />
          </mxGeometry>
        </mxCell>
        <mxCell id="2EE-lnMaA_nyX3GUGibZ-24" value="Use" style="endArrow=open;endSize=12;dashed=1;html=1;exitX=0.5;exitY=0;exitDx=0;exitDy=0;entryX=0.5;entryY=1;entryDx=0;entryDy=0;" edge="1" parent="1" source="2EE-lnMaA_nyX3GUGibZ-7" target="2EE-lnMaA_nyX3GUGibZ-5">
          <mxGeometry width="160" relative="1" as="geometry">
            <mxPoint x="470" y="400" as="sourcePoint" />
            <mxPoint x="630" y="400" as="targetPoint" />
          </mxGeometry>
        </mxCell>
        <mxCell id="2EE-lnMaA_nyX3GUGibZ-25" value="Use" style="endArrow=open;endSize=12;dashed=1;html=1;exitX=0.5;exitY=1;exitDx=0;exitDy=0;" edge="1" parent="1" source="2EE-lnMaA_nyX3GUGibZ-7" target="2EE-lnMaA_nyX3GUGibZ-6">
          <mxGeometry width="160" relative="1" as="geometry">
            <mxPoint x="530" y="310" as="sourcePoint" />
            <mxPoint x="630" y="400" as="targetPoint" />
          </mxGeometry>
        </mxCell>
        <mxCell id="2EE-lnMaA_nyX3GUGibZ-26" value="Use" style="endArrow=open;endSize=12;dashed=1;html=1;exitX=1;exitY=0.5;exitDx=0;exitDy=0;entryX=0;entryY=0.5;entryDx=0;entryDy=0;" edge="1" parent="1" source="2EE-lnMaA_nyX3GUGibZ-7" target="2EE-lnMaA_nyX3GUGibZ-10">
          <mxGeometry width="160" relative="1" as="geometry">
            <mxPoint x="470" y="400" as="sourcePoint" />
            <mxPoint x="630" y="400" as="targetPoint" />
          </mxGeometry>
        </mxCell>
        <mxCell id="2EE-lnMaA_nyX3GUGibZ-27" value="Use" style="endArrow=open;endSize=12;dashed=1;html=1;exitX=1;exitY=0.5;exitDx=0;exitDy=0;entryX=0;entryY=0.5;entryDx=0;entryDy=0;" edge="1" parent="1" source="2EE-lnMaA_nyX3GUGibZ-7" target="2EE-lnMaA_nyX3GUGibZ-8">
          <mxGeometry width="160" relative="1" as="geometry">
            <mxPoint x="470" y="400" as="sourcePoint" />
            <mxPoint x="630" y="400" as="targetPoint" />
          </mxGeometry>
        </mxCell>
        <mxCell id="2EE-lnMaA_nyX3GUGibZ-28" value="Use" style="endArrow=open;endSize=12;dashed=1;html=1;exitX=1;exitY=0.5;exitDx=0;exitDy=0;entryX=0;entryY=0.5;entryDx=0;entryDy=0;" edge="1" parent="1" source="2EE-lnMaA_nyX3GUGibZ-6" target="2EE-lnMaA_nyX3GUGibZ-12">
          <mxGeometry width="160" relative="1" as="geometry">
            <mxPoint x="470" y="400" as="sourcePoint" />
            <mxPoint x="630" y="400" as="targetPoint" />
          </mxGeometry>
        </mxCell>
        <mxCell id="2EE-lnMaA_nyX3GUGibZ-29" value="Use" style="endArrow=open;endSize=12;dashed=1;html=1;exitX=1;exitY=0.5;exitDx=0;exitDy=0;entryX=0;entryY=0.5;entryDx=0;entryDy=0;" edge="1" parent="1" source="2EE-lnMaA_nyX3GUGibZ-5" target="2EE-lnMaA_nyX3GUGibZ-10">
          <mxGeometry width="160" relative="1" as="geometry">
            <mxPoint x="470" y="400" as="sourcePoint" />
            <mxPoint x="630" y="400" as="targetPoint" />
          </mxGeometry>
        </mxCell>
        <mxCell id="2EE-lnMaA_nyX3GUGibZ-30" value="Use" style="endArrow=open;endSize=12;dashed=1;html=1;exitX=1;exitY=0.5;exitDx=0;exitDy=0;" edge="1" parent="1" source="2EE-lnMaA_nyX3GUGibZ-5">
          <mxGeometry width="160" relative="1" as="geometry">
            <mxPoint x="470" y="400" as="sourcePoint" />
            <mxPoint x="870" y="240" as="targetPoint" />
          </mxGeometry>
        </mxCell>
        <mxCell id="2EE-lnMaA_nyX3GUGibZ-31" value="Extends" style="endArrow=block;endSize=16;endFill=0;html=1;exitX=0.5;exitY=0;exitDx=0;exitDy=0;entryX=0.5;entryY=1;entryDx=0;entryDy=0;" edge="1" parent="1" source="2EE-lnMaA_nyX3GUGibZ-11" target="2EE-lnMaA_nyX3GUGibZ-12">
          <mxGeometry width="160" relative="1" as="geometry">
            <mxPoint x="470" y="400" as="sourcePoint" />
            <mxPoint x="630" y="400" as="targetPoint" />
          </mxGeometry>
        </mxCell>
        <mxCell id="2EE-lnMaA_nyX3GUGibZ-33" value="Extends" style="endArrow=block;endSize=16;endFill=0;html=1;exitX=0.5;exitY=1;exitDx=0;exitDy=0;" edge="1" parent="1" source="2EE-lnMaA_nyX3GUGibZ-11" target="2EE-lnMaA_nyX3GUGibZ-14">
          <mxGeometry width="160" relative="1" as="geometry">
            <mxPoint x="470" y="400" as="sourcePoint" />
            <mxPoint x="630" y="400" as="targetPoint" />
          </mxGeometry>
        </mxCell>
        <mxCell id="2EE-lnMaA_nyX3GUGibZ-34" value="Extends" style="endArrow=block;endSize=16;endFill=0;html=1;exitX=0.5;exitY=0;exitDx=0;exitDy=0;entryX=0.5;entryY=1;entryDx=0;entryDy=0;" edge="1" parent="1" source="2EE-lnMaA_nyX3GUGibZ-13" target="2EE-lnMaA_nyX3GUGibZ-14">
          <mxGeometry width="160" relative="1" as="geometry">
            <mxPoint x="470" y="400" as="sourcePoint" />
            <mxPoint x="630" y="400" as="targetPoint" />
          </mxGeometry>
        </mxCell>
        <mxCell id="2EE-lnMaA_nyX3GUGibZ-35" value="Extends" style="endArrow=block;endSize=16;endFill=0;html=1;exitX=1;exitY=0.5;exitDx=0;exitDy=0;entryX=0;entryY=0.5;entryDx=0;entryDy=0;" edge="1" parent="1" source="2EE-lnMaA_nyX3GUGibZ-16" target="2EE-lnMaA_nyX3GUGibZ-15">
          <mxGeometry width="160" relative="1" as="geometry">
            <mxPoint x="470" y="440" as="sourcePoint" />
            <mxPoint x="630" y="440" as="targetPoint" />
          </mxGeometry>
        </mxCell>
        <mxCell id="2EE-lnMaA_nyX3GUGibZ-36" value="Use" style="endArrow=open;endSize=12;dashed=1;html=1;exitX=0.5;exitY=1;exitDx=0;exitDy=0;entryX=0.5;entryY=0;entryDx=0;entryDy=0;" edge="1" parent="1" source="2EE-lnMaA_nyX3GUGibZ-17" target="2EE-lnMaA_nyX3GUGibZ-15">
          <mxGeometry width="160" relative="1" as="geometry">
            <mxPoint x="470" y="440" as="sourcePoint" />
            <mxPoint x="630" y="440" as="targetPoint" />
          </mxGeometry>
        </mxCell>
        <mxCell id="2EE-lnMaA_nyX3GUGibZ-37" value="Use" style="endArrow=open;endSize=12;dashed=1;html=1;exitX=0.5;exitY=1;exitDx=0;exitDy=0;" edge="1" parent="1" source="2EE-lnMaA_nyX3GUGibZ-18" target="2EE-lnMaA_nyX3GUGibZ-15">
          <mxGeometry width="160" relative="1" as="geometry">
            <mxPoint x="470" y="440" as="sourcePoint" />
            <mxPoint x="630" y="440" as="targetPoint" />
          </mxGeometry>
        </mxCell>
        <mxCell id="2EE-lnMaA_nyX3GUGibZ-38" value="Use" style="endArrow=open;endSize=12;dashed=1;html=1;exitX=0;exitY=0.5;exitDx=0;exitDy=0;entryX=0;entryY=0.5;entryDx=0;entryDy=0;edgeStyle=orthogonalEdgeStyle;" edge="1" parent="1" source="2EE-lnMaA_nyX3GUGibZ-2" target="2EE-lnMaA_nyX3GUGibZ-18">
          <mxGeometry width="160" relative="1" as="geometry">
            <mxPoint x="470" y="460" as="sourcePoint" />
            <mxPoint x="630" y="460" as="targetPoint" />
            <Array as="points">
              <mxPoint x="80" y="145" />
              <mxPoint x="80" y="625" />
            </Array>
          </mxGeometry>
        </mxCell>
        <mxCell id="2EE-lnMaA_nyX3GUGibZ-39" value="Use" style="endArrow=open;endSize=12;dashed=1;html=1;exitX=0;exitY=0.5;exitDx=0;exitDy=0;entryX=0;entryY=0.5;entryDx=0;entryDy=0;edgeStyle=orthogonalEdgeStyle;" edge="1" parent="1" source="2EE-lnMaA_nyX3GUGibZ-2" target="2EE-lnMaA_nyX3GUGibZ-16">
          <mxGeometry width="160" relative="1" as="geometry">
            <mxPoint x="470" y="450" as="sourcePoint" />
            <mxPoint x="630" y="450" as="targetPoint" />
            <Array as="points">
              <mxPoint x="50" y="145" />
              <mxPoint x="50" y="715" />
            </Array>
          </mxGeometry>
        </mxCell>
        <mxCell id="2EE-lnMaA_nyX3GUGibZ-40" value="Use" style="endArrow=open;endSize=12;dashed=1;html=1;exitX=0;exitY=0.5;exitDx=0;exitDy=0;entryX=0.5;entryY=0;entryDx=0;entryDy=0;edgeStyle=orthogonalEdgeStyle;" edge="1" parent="1" source="2EE-lnMaA_nyX3GUGibZ-2" target="2EE-lnMaA_nyX3GUGibZ-17">
          <mxGeometry width="160" relative="1" as="geometry">
            <mxPoint x="470" y="450" as="sourcePoint" />
            <mxPoint x="630" y="450" as="targetPoint" />
            <Array as="points">
              <mxPoint x="210" y="145" />
              <mxPoint x="210" y="530" />
              <mxPoint x="355" y="530" />
            </Array>
          </mxGeometry>
        </mxCell>
        <mxCell id="2EE-lnMaA_nyX3GUGibZ-42" value="Use" style="endArrow=open;endSize=12;dashed=1;html=1;exitX=1;exitY=0.5;exitDx=0;exitDy=0;entryX=1;entryY=0.5;entryDx=0;entryDy=0;edgeStyle=orthogonalEdgeStyle;" edge="1" parent="1" source="2EE-lnMaA_nyX3GUGibZ-17" target="2EE-lnMaA_nyX3GUGibZ-10">
          <mxGeometry width="160" relative="1" as="geometry">
            <mxPoint x="470" y="450" as="sourcePoint" />
            <mxPoint x="630" y="450" as="targetPoint" />
            <Array as="points">
              <mxPoint x="800" y="625" />
              <mxPoint x="800" y="780" />
              <mxPoint x="1050" y="780" />
              <mxPoint x="1050" y="145" />
            </Array>
          </mxGeometry>
        </mxCell>
        <mxCell id="2EE-lnMaA_nyX3GUGibZ-45" value="Extends" style="endArrow=block;endSize=16;endFill=0;html=1;exitX=0.5;exitY=0;exitDx=0;exitDy=0;entryX=0.5;entryY=0;entryDx=0;entryDy=0;edgeStyle=orthogonalEdgeStyle;" edge="1" parent="1" source="2EE-lnMaA_nyX3GUGibZ-18" target="2EE-lnMaA_nyX3GUGibZ-10">
          <mxGeometry width="160" relative="1" as="geometry">
            <mxPoint x="470" y="450" as="sourcePoint" />
            <mxPoint x="630" y="450" as="targetPoint" />
            <Array as="points">
              <mxPoint x="165" y="80" />
              <mxPoint x="925" y="80" />
            </Array>
          </mxGeometry>
        </mxCell>
        <mxCell id="2EE-lnMaA_nyX3GUGibZ-46" value="Extends" style="endArrow=block;endSize=16;endFill=0;html=1;exitX=1;exitY=0.5;exitDx=0;exitDy=0;entryX=1;entryY=0.5;entryDx=0;entryDy=0;edgeStyle=orthogonalEdgeStyle;" edge="1" parent="1" source="2EE-lnMaA_nyX3GUGibZ-17" target="2EE-lnMaA_nyX3GUGibZ-8">
          <mxGeometry width="160" relative="1" as="geometry">
            <mxPoint x="470" y="450" as="sourcePoint" />
            <mxPoint x="630" y="450" as="targetPoint" />
            <Array as="points">
              <mxPoint x="850" y="625" />
              <mxPoint x="850" y="730" />
              <mxPoint x="1030" y="730" />
              <mxPoint x="1030" y="235" />
            </Array>
          </mxGeometry>
        </mxCell>
        <mxCell id="2EE-lnMaA_nyX3GUGibZ-47" value="Use" style="endArrow=open;endSize=12;dashed=1;html=1;exitX=0.5;exitY=0;exitDx=0;exitDy=0;entryX=0.5;entryY=1;entryDx=0;entryDy=0;" edge="1" parent="1" source="2EE-lnMaA_nyX3GUGibZ-8" target="2EE-lnMaA_nyX3GUGibZ-10">
          <mxGeometry width="160" relative="1" as="geometry">
            <mxPoint x="470" y="450" as="sourcePoint" />
            <mxPoint x="630" y="450" as="targetPoint" />
          </mxGeometry>
        </mxCell>
      </root>
    </mxGraphModel>
  </diagram>
</mxfile>
